<svg version="1.2" xmlns="http://www.w3.org/2000/svg" viewBox="0 0 1080 1080" width="1080" height="1080">
	<style>
		.s0 { fill: #1b1b28 } 
		.s1 { fill: #bde0e1;stroke: #bde0e1;stroke-miterlimit:10;stroke-width: 0 } 
		.s2 { fill: #429bde;stroke: #429bde;stroke-miterlimit:10;stroke-width: 5 } 
	</style>
	<g id="Layer 1">
		<path id="Şekil 1" fill-rule="evenodd" class="s0" d="m255 0h570c141.38 0 256 114.62 256 256v570c0 141.38-114.62 256-256 256h-570c-141.38 0-256-114.62-256-256v-570c0-141.38 114.62-256 256-256z"/>
		<g id="Yeni Proje (1)">
			<path id="Path 2" fill-rule="evenodd" class="s1" d="m537.78 68.35c-0.88 0.81-12.86 8.49-26.62 17.06-13.75 8.58-44.1 27.56-67.43 42.18-23.34 14.63-48.79 30.63-56.57 35.57-7.77 4.94-18.16 11.35-23.07 14.26l-8.93 5.29c7.94 5.19 25.91 16.52 45.06 28.51 19.14 12 42.15 26.48 51.12 32.18 8.97 5.7 32.84 20.69 53.03 33.3l36.71 22.94c47.63-29.67 64.64-40.36 68.52-42.89 3.89-2.53 21.89-13.86 40-25.18 18.11-11.32 34.11-21.32 35.56-22.21 1.45-0.9 11.47-7.14 22.28-13.87 10.8-6.73 19.64-12.61 19.64-13.05 0-0.45-5.02-3.97-11.15-7.83-6.13-3.85-24.61-15.28-41.06-25.4-16.45-10.12-36.28-22.34-44.05-27.17-7.78-4.83-17.82-11.05-22.3-13.83-4.49-2.77-20.4-12.56-35.35-21.74-14.96-9.19-27.93-17.34-28.83-18.13-0.9-0.78-2.38-1.43-3.3-1.45-0.92-0.01-2.39 0.64-3.26 1.46zm-256.35 154.39c-0.48 0.78-2.82 2.58-5.21 4-2.4 1.42-10.47 6.58-17.95 11.47-7.48 4.89-19.23 12.55-26.11 17.03-6.88 4.48-17.52 11.41-23.66 15.4-6.13 3.98-11.15 7.49-11.15 7.79 0 0.3 0.62 0.2 1.36-0.21 0.75-0.42 7.73-4.9 15.5-9.96 7.78-5.06 19.04-12.39 25.02-16.29 5.98-3.89 15.28-9.99 20.67-13.56 5.38-3.57 12.85-8.39 16.59-10.7l6.8-4.21c21.49 13.17 32.63 20.04 38.61 23.76 5.98 3.72 15.81 9.81 21.85 13.53 6.03 3.72 14.36 8.91 18.49 11.54 4.14 2.64 9.97 6.35 12.96 8.26 2.99 1.9 6.17 3.86 7.07 4.34 1.45 0.78 1.45 0.69 0-0.79-0.9-0.92-16.56-10.94-34.81-22.27-18.25-11.34-39.29-24.33-46.77-28.88-7.48-4.55-14.33-9.02-15.23-9.94-0.9-0.92-1.98-1.68-2.4-1.7-0.43-0.01-1.16 0.61-1.63 1.39zm508.84-0.41c-0.06 0.64-11.73 8.54-25.94 17.54-14.2 9.01-32.46 20.64-40.56 25.84-8.1 5.2-20.07 12.88-26.6 17.07-6.53 4.19-18.5 11.85-26.6 17.04-8.11 5.18-15.72 10.23-16.91 11.21-1.2 0.99-1.44 1.45-0.55 1.03 0.9-0.43 10.2-6.26 20.67-12.96 10.47-6.7 28.83-18.45 40.79-26.12 11.97-7.66 25.67-16.47 30.46-19.58 4.78-3.1 17.02-10.93 27.19-17.38 10.17-6.46 18.86-12.28 19.31-12.95 0.57-0.84 1.17-0.71 1.98 0.43 1.04 1.45 1.12 1.45 0.73 0-0.25-0.9-1.22-1.79-2.16-1.99-0.95-0.19-1.76 0.18-1.81 0.82zm5.46 2.71c-0.07 0.35 7.1 4.96 15.92 10.26 8.82 5.29 26.81 16.1 39.97 24.03 13.17 7.92 25.28 15.33 26.93 16.48 1.64 1.14 3.45 1.95 4.02 1.8 0.57-0.15-18.33-12.02-42.01-26.38-23.68-14.35-43.43-26.26-43.88-26.46-0.45-0.2-0.88-0.08-0.95 0.27zm-601.09 54.66c-0.5 0.4-0.85 72.72-0.77 160.71l0.14 159.99c8.07 5.28 13.84 9.25 18.03 12.21 4.19 2.97 22.79 16.02 41.33 29.01 18.55 12.98 34.58 24.32 35.63 25.18 1.04 0.87 2.16 1.21 2.47 0.76 0.32-0.45 0.56-73.38 0.55-162.07-0.02-88.69 0.33-161.24 0.78-161.22 0.45 0.02 2.53 1.04 4.63 2.27l3.8 2.23c-5.06-4.35-7.38-5.61-8.43-5.62-1.8 0-1.91 8.52-2.17 161.61l-0.27 161.62c-23.62-16.58-32.58-22.86-35.14-24.65-2.57-1.8-8.5-5.96-13.19-9.25-4.68-3.29-16.65-11.73-26.59-18.76-9.95-7.03-18.57-12.78-19.17-12.78-0.72 0-1-54.21-0.82-160.98 0.15-88.55 0.23-160.99 0.18-160.99-0.05 0-0.5 0.33-0.99 0.73zm689.6 159.17c0 87.64 0.13 123.37 0.29 79.4 0.16-43.97 0.16-115.68 0-159.35-0.16-43.67-0.29-7.7-0.29 79.95zm-499.83-153.1c-0.02 0.15 3.78 2.78 8.43 5.85 4.66 3.08 10.67 6.95 13.36 8.62 2.69 1.68 11.26 6.93 19.03 11.67 7.78 4.75 14.51 8.83 14.96 9.06 0.45 0.23 0.93 0.22 1.07-0.03 0.14-0.24-11.48-7.67-25.83-16.49-14.35-8.82-26.83-16.68-27.72-17.47-0.9-0.78-2-1.44-2.45-1.45-0.45-0.02-0.83 0.09-0.85 0.24zm260.31 30.49c-3.12 1.93-5.69 3.87-5.71 4.32-0.02 0.45 2.47-0.78 5.53-2.72 3.06-1.95 5.73-3.9 5.94-4.35 0.21-0.45 0.27-0.8 0.15-0.78-0.13 0.02-2.79 1.61-5.91 3.53zm-201.54 6.48c0.9 0.92 16.56 10.94 34.81 22.27 18.25 11.32 33.91 20.99 34.81 21.48 1.45 0.79 1.45 0.71 0-0.72-0.9-0.89-6.77-4.79-13.06-8.68-6.28-3.88-19.25-11.87-28.82-17.74-9.57-5.88-18.14-11.26-19.04-11.97-0.89-0.7-3.59-2.41-5.98-3.8-2.39-1.39-3.62-1.77-2.72-0.84zm180.34 7.19c-7 4.58-13.12 8.76-13.6 9.29-0.47 0.53 0.36 0.32 1.86-0.45 1.5-0.78 7.61-4.59 13.6-8.47 5.98-3.89 11.34-7.48 11.91-7.98 0.65-0.59 0.65-0.89 0-0.82-0.57 0.05-6.77 3.85-13.77 8.43zm-29.14 18.71c-7.48 4.8-17.52 11.26-22.3 14.34-4.79 3.08-13.48 8.69-19.31 12.47-5.83 3.77-11.22 6.86-11.96 6.87-0.75 0.01-1.85-0.4-2.45-0.91-0.6-0.51-3.05-2.03-5.44-3.37l-4.35-2.44c5.06 4.33 7.99 6.16 9.79 6.85 2.74 1.07 3.78 0.95 6.52-0.73 1.8-1.1 16.24-10.31 32.09-20.46 15.86-10.15 29.54-19.11 30.42-19.91 0.88-0.81 1.37-1.46 1.09-1.45-0.28 0.01-6.63 3.94-14.1 8.74zm-282.59 6.89c-0.12 0.37 3.08 2.79 7.12 5.37 4.04 2.59 7.95 5.03 8.7 5.44 0.75 0.41 1.38 0.62 1.4 0.47 0.02-0.15-2.55-2.03-5.71-4.17-3.16-2.14-7-4.77-8.52-5.83-1.53-1.07-2.87-1.65-2.99-1.28zm445.3 9.37c-8.33 5.37-15.06 10.01-14.96 10.32 0.1 0.31 0.79 0.22 1.54-0.2 0.75-0.42 7.6-4.82 15.23-9.79 7.62-4.97 13.86-9.27 13.86-9.57 0-0.3-0.12-0.54-0.27-0.53-0.15 0-7.08 4.4-15.4 9.77zm-427.01 2.71c-0.01 0.3 11.6 8.2 25.81 17.53 14.21 9.34 27.79 18.32 30.19 19.95 2.39 1.62 4.96 3.28 5.71 3.68 0.74 0.4 1.33 0.49 1.31 0.19-0.03-0.3-6.51-4.76-14.41-9.92-7.9-5.17-20.24-13.31-27.42-18.11-7.18-4.79-14.88-9.88-17.11-11.3-2.23-1.42-4.07-2.33-4.08-2.02zm401.89 13.79c-4.78 3.11-15.55 10.14-23.93 15.62-8.37 5.47-18.04 11.75-21.48 13.94-3.44 2.19-6.25 4.22-6.25 4.52 0 0.3 0.61 0.21 1.36-0.19 0.74-0.4 6.99-4.4 13.87-8.87 6.88-4.47 17.4-11.31 23.38-15.2 5.98-3.89 13.45-8.71 16.59-10.71 3.14-2 5.71-3.89 5.71-4.19 0-0.3-0.12-0.55-0.27-0.55-0.15-0.01-4.19 2.53-8.98 5.63zm-337.52 28.52c-0.12 0.37 6.02 4.73 13.65 9.7 7.63 4.96 14.48 9.37 15.23 9.79 0.75 0.41 1.36 0.51 1.36 0.21 0-0.3-5.51-4.13-12.24-8.5-6.73-4.38-13.48-8.85-15-9.92-1.53-1.07-2.88-1.65-3-1.28zm263.56 19.64c-11.37 7.42-28.44 18.55-37.94 24.73-9.5 6.17-21.25 13.85-26.1 17.05-4.86 3.2-9.33 6.33-9.93 6.96q-1.13 1.16 0.55 0.25c0.89-0.49 6.24-3.87 11.88-7.5 5.63-3.64 17.72-11.52 26.87-17.5 9.14-5.98 25.27-16.5 35.83-23.38 10.56-6.88 19.38-12.88 19.59-13.33 0.21-0.45 0.28-0.81 0.15-0.79-0.13 0.01-9.53 6.09-20.9 13.51zm-323.95 130.86l0.6 132.43c3.6 3.54 15.41 11.53 28.57 20.03 13.17 8.5 33.97 22 46.23 30l22.3 14.56c1.69-112.86 2.54-145.63 2.99-145.62 0.45 0 9.89 6.24 20.98 13.87 11.09 7.62 24.18 16.66 29.1 20.07 4.91 3.41 13.58 9.45 19.26 13.41 5.69 3.97 16.33 11.34 23.66 16.37l13.33 9.16c35.82-23.48 54-35.35 63.5-41.53 9.5-6.17 22.96-14.99 29.91-19.59 6.95-4.6 13.01-8.15 13.46-7.89 0.45 0.26 0.81 31.8 0.81 70.09 0 45.69 0.38 69.62 1.09 69.62 0.6 0 4.39-2.13 8.43-4.73 4.04-2.61 15.66-10.04 25.83-16.53 10.17-6.48 22.9-14.62 28.29-18.08 5.38-3.46 14.66-9.36 20.62-13.12 5.95-3.75 11.46-7.44 12.23-8.18 1.14-1.1 1.41-26.88 1.41-133.52 0-105.02-0.28-132.16-1.36-132.13-0.75 0.01-17.76 10.63-37.8 23.58-20.04 12.95-41.33 26.72-47.32 30.59-5.98 3.87-16.61 10.76-23.63 15.3-7.01 4.55-18.47 11.94-25.45 16.43-6.99 4.49-17.4 11.17-23.14 14.86-5.75 3.68-13.87 8.89-18.06 11.56-4.19 2.68-11.89 7.62-17.13 10.98-5.23 3.36-10.5 6.11-11.69 6.11-1.2 0-9.4-4.6-18.22-10.23-8.83-5.62-18.49-11.78-21.48-13.69-3-1.91-18.66-11.97-34.81-22.35-16.15-10.38-33.04-21.2-37.53-24.06-4.49-2.85-24.06-15.41-43.51-27.91-19.44-12.5-38.65-24.87-42.69-27.5-4.04-2.64-7.8-4.79-8.36-4.79-0.62 0-0.78 50.89-0.42 132.43zm101.62-123.25c-0.06 0.34 10.78 7.79 24.09 16.56 13.31 8.78 30.81 20.33 38.89 25.67 8.07 5.35 15.66 10.22 16.86 10.84q2.16 1.09 1.08 0.01c-0.59-0.61-18.46-12.56-39.7-26.57-21.24-14.01-39.18-25.84-39.86-26.29-0.69-0.46-1.3-0.55-1.36-0.22zm126.34 55.01c-10.92 7.17-20.34 13.04-20.94 13.04-0.6 0-5.37-2.85-10.61-6.33-5.23-3.48-10.25-6.78-11.15-7.33-1.04-0.64-1.38-0.62-0.94 0.07 0.37 0.6 5.27 4.18 10.87 7.98 6.58 4.45 10.97 6.73 12.37 6.42 1.2-0.26 10.87-6.18 21.48-13.15 10.62-6.97 19.31-12.92 19.31-13.22 0-0.3-0.12-0.54-0.27-0.53-0.15 0.01-9.21 5.88-20.12 13.05zm305.92 117.49c-8.37 5.39-15.72 10.36-16.32 11.03-0.77 0.88-0.62 0.96 0.55 0.31 0.9-0.51 7.99-5.04 15.77-10.07 7.78-5.02 14.61-9.58 15.17-10.11 0.57-0.54 0.82-0.98 0.55-0.98-0.27 0-7.34 4.42-15.72 9.82zm-30.46 19.71c-6.58 4.26-18.71 12.15-26.97 17.53-8.25 5.38-14.98 9.96-14.96 10.19 0.03 0.22 0.91-0.06 1.96-0.62 1.05-0.57 8.27-5.2 16.04-10.31 7.78-5.1 18.99-12.35 24.9-16.1 5.92-3.76 10.92-7.2 11.11-7.65 0.2-0.45 0.25-0.81 0.12-0.8-0.13 0-5.62 3.49-12.2 7.76zm22.72 42.69c-13.69 9.14-90.48 60.35-170.65 113.79-80.16 53.45-146.73 97.35-147.93 97.55-1.42 0.25-16.17-8.86-42.42-26.19-22.14-14.62-62.03-41.01-88.65-58.66-26.62-17.64-65.29-43.21-85.93-56.82-20.64-13.61-49.76-32.83-64.72-42.71-14.96-9.87-35.03-23.16-44.6-29.51-9.57-6.36-18.26-11.91-19.31-12.33-1.79-0.73-1.9 2.6-1.92 60.95l-0.02 61.73c268.1 179.14 346.43 231.14 347.03 231.14 0.6 0 59.21-38.67 130.25-85.94 71.05-47.27 148.59-98.79 172.33-114.49l43.16-28.53c0.31-102.4-0.01-125.71-0.68-126.05-0.58-0.3-12.25 6.93-25.94 16.07z"/>
			<path id="Path 1" fill-rule="evenodd" class="s2" d="m791.06 223.36c-0.19 0.52-10.38 7.34-22.65 15.16-12.26 7.82-29.88 19.08-39.16 25.02-9.27 5.93-28.11 18.04-41.87 26.89-13.76 8.85-27.82 17.85-31.24 19.99-3.42 2.15-11.88 7.57-18.79 12.06-6.91 4.49-16.46 10.61-21.22 13.6-4.76 2.99-13.68 8.68-19.83 12.65-6.14 3.97-20.84 13.4-32.65 20.94-11.82 7.55-22.1 13.74-22.84 13.76-0.75 0.03-4.3-1.88-7.89-4.23-3.59-2.35-13.62-8.65-22.3-13.99-8.67-5.34-27.44-17.02-41.69-25.95-14.26-8.93-30.17-18.88-35.35-22.12-5.19-3.23-15.55-9.66-23.03-14.28-7.48-4.62-16.89-10.54-20.92-13.15-4.03-2.62-10.39-6.67-14.14-9.01-3.75-2.34-9.96-6.25-13.79-8.7-3.84-2.45-11.92-7.49-17.95-11.21-6.04-3.72-15.87-9.81-21.85-13.53-5.98-3.72-17.04-10.54-24.58-15.16l-13.71-8.4c-12.98 7.85-22.96 14.21-30.56 19.18-7.6 4.98-19.69 12.92-26.87 17.63-7.18 4.71-17.11 11.16-22.07 14.33l-9.01 5.76c0.07 266.2 0.45 320.34 1.17 320.34 0.6 0 9.22 5.75 19.17 12.78 9.94 7.03 21.91 15.47 26.59 18.76 4.69 3.29 10.62 7.45 13.19 9.25 2.56 1.79 11.52 8.07 19.9 13.95l15.24 10.7c0.51-304.43 0.73-323.23 2.17-323.23 0.9 0 7.38 3.84 14.41 8.53 7.03 4.69 22.82 15.14 35.08 23.22 12.27 8.07 31.85 20.95 43.51 28.63 11.67 7.67 31.25 20.55 43.51 28.63 12.27 8.07 34.29 22.6 48.95 32.28 14.66 9.68 34.6 22.81 44.32 29.19 9.73 6.37 18.17 11.59 18.77 11.59 0.6 0 8.31-4.72 17.13-10.49 8.82-5.77 21.67-14.18 28.55-18.67 6.88-4.5 21.2-13.85 31.81-20.78 10.62-6.93 23.83-15.53 29.37-19.11 5.54-3.57 18.63-12.09 29.1-18.92 10.47-6.84 24.42-15.95 31-20.25 6.58-4.31 16.37-10.68 21.76-14.17 5.38-3.49 15.91-10.34 23.38-15.23 7.48-4.89 19.48-12.7 26.65-17.37 7.18-4.67 13.67-8.66 14.42-8.87 1.08-0.31 1.41 31.77 1.63 157.29l0.27 157.68c23.73-15.53 34.01-22.21 38.15-24.87 4.14-2.65 15.12-9.77 24.39-15.81 9.28-6.05 18.7-12.07 20.94-13.39l4.08-2.41c0.01-321.23 0.01-321.42-2.2-322.51-1.22-0.6-11.62-6.8-23.12-13.78-11.5-6.98-30.06-18.23-41.26-25.01-11.19-6.79-21.35-13.19-22.57-14.24-1.22-1.04-2.43-1.9-2.69-1.9-0.26 0-0.62 0.43-0.81 0.95z"/>
		</g>
	</g>
</svg>